# xmcd
#
# Track frame offsets: 
#        150
#        12600
#        29720
#        42753
#        59315
#        72123
#        92450
#        104724
#        117191
#        129850
#        146919
#        154427
#        170107
#
# Disc length: 2416 seconds
#
# Revision: 2
# Processed by: cddbd v1.5.2PL0 Copyright (c) Steve Scherf et al.
# Submitted via: ExactAudioCopyFreeDBPlugin 1.0
#
DISCID=bd096e0d
DTITLE=Various Artist - Christmas Grass (Vol. 2)
DYEAR=2004
DGENRE=Christmas
TTITLE0=Dolly Parton - Christmas Time's A Comin'
TTITLE1=Ronnie Bowman - Merry Christmas Ho Ho Ho
TTITLE2=Instrumental - God Rest Ye Merry, Gentlemen
TTITLE3=Rhonda Vincent - Tennessee Christmas
TTITLE4=Doyle Lawson and Quicksilver - O Christmas Candle
TTITLE5=Darrin Vincent and Jamie Dailey - Beautiful Star Of Bethlehem
TTITLE6=Instrumental - It Came Upon A Midnight Clear
TTITLE7=Russell Moore - Christmas Is Near
TTITLE8=The Larkins - Christmas In Dixie
TTITLE9=Bobby Osborne - Silent Night
TTITLE10=Charlie Daniels - Luke 2
TTITLE11=Sonya Issacs - Mary, Did You Know?
TTITLE12=Instrumental - We Wish You A Merry Christmas
EXTD=
EXTT0=
EXTT1=
EXTT2=
EXTT3=
EXTT4=
EXTT5=
EXTT6=
EXTT7=
EXTT8=
EXTT9=
EXTT10=
EXTT11=
EXTT12=
PLAYORDER=
